<mxfile host="65bd71144e">
    <diagram id="vqOe8lKp4YPBae3u_diQ" name="Page-1">
        <mxGraphModel dx="2443" dy="816" grid="1" gridSize="10" guides="1" tooltips="1" connect="1" arrows="1" fold="1" page="1" pageScale="1" pageWidth="850" pageHeight="1100" math="0" shadow="0">
            <root>
                <mxCell id="0"/>
                <mxCell id="1" parent="0"/>
                <mxCell id="2" value="Cube" style="swimlane;fontStyle=0;childLayout=stackLayout;horizontal=1;startSize=26;horizontalStack=0;resizeParent=1;resizeParentMax=0;resizeLast=0;collapsible=1;marginBottom=0;align=center;fontSize=14;" parent="1" vertex="1">
                    <mxGeometry x="120" y="40" width="280" height="276" as="geometry"/>
                </mxCell>
                <mxCell id="4" value="length: float" style="text;strokeColor=none;fillColor=none;spacingLeft=4;spacingRight=4;overflow=hidden;rotatable=0;points=[[0,0.5],[1,0.5]];portConstraint=eastwest;fontSize=12;" parent="2" vertex="1">
                    <mxGeometry y="26" width="280" height="30" as="geometry"/>
                </mxCell>
                <mxCell id="13" value="history: ArrayList&lt;Cube&gt;" style="text;strokeColor=none;fillColor=none;spacingLeft=4;spacingRight=4;overflow=hidden;rotatable=0;points=[[0,0.5],[1,0.5]];portConstraint=eastwest;fontSize=12;" parent="2" vertex="1">
                    <mxGeometry y="56" width="280" height="30" as="geometry"/>
                </mxCell>
                <mxCell id="12" value="" style="line;strokeWidth=1;rotatable=0;dashed=0;labelPosition=right;align=left;verticalAlign=middle;spacingTop=0;spacingLeft=6;points=[];portConstraint=eastwest;" parent="2" vertex="1">
                    <mxGeometry y="86" width="280" height="10" as="geometry"/>
                </mxCell>
                <mxCell id="5" value="Cube(length: float)" style="text;strokeColor=none;fillColor=none;spacingLeft=4;spacingRight=4;overflow=hidden;rotatable=0;points=[[0,0.5],[1,0.5]];portConstraint=eastwest;fontSize=12;" parent="2" vertex="1">
                    <mxGeometry y="96" width="280" height="30" as="geometry"/>
                </mxCell>
                <mxCell id="14" value="getLength(): float" style="text;strokeColor=none;fillColor=none;spacingLeft=4;spacingRight=4;overflow=hidden;rotatable=0;points=[[0,0.5],[1,0.5]];portConstraint=eastwest;fontSize=12;" parent="2" vertex="1">
                    <mxGeometry y="126" width="280" height="30" as="geometry"/>
                </mxCell>
                <mxCell id="15" value="setLength(length: float): void" style="text;strokeColor=none;fillColor=none;spacingLeft=4;spacingRight=4;overflow=hidden;rotatable=0;points=[[0,0.5],[1,0.5]];portConstraint=eastwest;fontSize=12;" parent="2" vertex="1">
                    <mxGeometry y="156" width="280" height="30" as="geometry"/>
                </mxCell>
                <mxCell id="18" value="getVolume(): float" style="text;strokeColor=none;fillColor=none;spacingLeft=4;spacingRight=4;overflow=hidden;rotatable=0;points=[[0,0.5],[1,0.5]];portConstraint=eastwest;fontSize=12;" parent="2" vertex="1">
                    <mxGeometry y="186" width="280" height="30" as="geometry"/>
                </mxCell>
                <mxCell id="19" value="getSurfaceArea(): float" style="text;strokeColor=none;fillColor=none;spacingLeft=4;spacingRight=4;overflow=hidden;rotatable=0;points=[[0,0.5],[1,0.5]];portConstraint=eastwest;fontSize=12;" parent="2" vertex="1">
                    <mxGeometry y="216" width="280" height="30" as="geometry"/>
                </mxCell>
                <mxCell id="20" value="toString(): String" style="text;strokeColor=none;fillColor=none;spacingLeft=4;spacingRight=4;overflow=hidden;rotatable=0;points=[[0,0.5],[1,0.5]];portConstraint=eastwest;fontSize=12;" parent="2" vertex="1">
                    <mxGeometry y="246" width="280" height="30" as="geometry"/>
                </mxCell>
                <mxCell id="21" value="Cuboid" style="swimlane;fontStyle=0;childLayout=stackLayout;horizontal=1;startSize=26;horizontalStack=0;resizeParent=1;resizeParentMax=0;resizeLast=0;collapsible=1;marginBottom=0;align=center;fontSize=14;" parent="1" vertex="1">
                    <mxGeometry x="120" y="360" width="280" height="456" as="geometry"/>
                </mxCell>
                <mxCell id="23" value="length: float" style="text;strokeColor=none;fillColor=none;spacingLeft=4;spacingRight=4;overflow=hidden;rotatable=0;points=[[0,0.5],[1,0.5]];portConstraint=eastwest;fontSize=12;" parent="21" vertex="1">
                    <mxGeometry y="26" width="280" height="30" as="geometry"/>
                </mxCell>
                <mxCell id="33" value="width: float" style="text;strokeColor=none;fillColor=none;spacingLeft=4;spacingRight=4;overflow=hidden;rotatable=0;points=[[0,0.5],[1,0.5]];portConstraint=eastwest;fontSize=12;" parent="21" vertex="1">
                    <mxGeometry y="56" width="280" height="30" as="geometry"/>
                </mxCell>
                <mxCell id="34" value="height: float" style="text;strokeColor=none;fillColor=none;spacingLeft=4;spacingRight=4;overflow=hidden;rotatable=0;points=[[0,0.5],[1,0.5]];portConstraint=eastwest;fontSize=12;" parent="21" vertex="1">
                    <mxGeometry y="86" width="280" height="30" as="geometry"/>
                </mxCell>
                <mxCell id="24" value="history: ArrayList&lt;Cuboid&gt;" style="text;strokeColor=none;fillColor=none;spacingLeft=4;spacingRight=4;overflow=hidden;rotatable=0;points=[[0,0.5],[1,0.5]];portConstraint=eastwest;fontSize=12;" parent="21" vertex="1">
                    <mxGeometry y="116" width="280" height="30" as="geometry"/>
                </mxCell>
                <mxCell id="25" value="" style="line;strokeWidth=1;rotatable=0;dashed=0;labelPosition=right;align=left;verticalAlign=middle;spacingTop=0;spacingLeft=6;points=[];portConstraint=eastwest;" parent="21" vertex="1">
                    <mxGeometry y="146" width="280" height="10" as="geometry"/>
                </mxCell>
                <mxCell id="26" value="Cube(length: float, width: float, height: float)" style="text;strokeColor=none;fillColor=none;spacingLeft=4;spacingRight=4;overflow=hidden;rotatable=0;points=[[0,0.5],[1,0.5]];portConstraint=eastwest;fontSize=12;" parent="21" vertex="1">
                    <mxGeometry y="156" width="280" height="30" as="geometry"/>
                </mxCell>
                <mxCell id="28" value="getLength(): float" style="text;strokeColor=none;fillColor=none;spacingLeft=4;spacingRight=4;overflow=hidden;rotatable=0;points=[[0,0.5],[1,0.5]];portConstraint=eastwest;fontSize=12;" parent="21" vertex="1">
                    <mxGeometry y="186" width="280" height="30" as="geometry"/>
                </mxCell>
                <mxCell id="29" value="setLength(length: float): void" style="text;strokeColor=none;fillColor=none;spacingLeft=4;spacingRight=4;overflow=hidden;rotatable=0;points=[[0,0.5],[1,0.5]];portConstraint=eastwest;fontSize=12;" parent="21" vertex="1">
                    <mxGeometry y="216" width="280" height="30" as="geometry"/>
                </mxCell>
                <mxCell id="39" value="getWidth(): float" style="text;strokeColor=none;fillColor=none;spacingLeft=4;spacingRight=4;overflow=hidden;rotatable=0;points=[[0,0.5],[1,0.5]];portConstraint=eastwest;fontSize=12;" parent="21" vertex="1">
                    <mxGeometry y="246" width="280" height="30" as="geometry"/>
                </mxCell>
                <mxCell id="40" value="setWidth(width: float): void" style="text;strokeColor=none;fillColor=none;spacingLeft=4;spacingRight=4;overflow=hidden;rotatable=0;points=[[0,0.5],[1,0.5]];portConstraint=eastwest;fontSize=12;" parent="21" vertex="1">
                    <mxGeometry y="276" width="280" height="30" as="geometry"/>
                </mxCell>
                <mxCell id="41" value="getHeight(): float" style="text;strokeColor=none;fillColor=none;spacingLeft=4;spacingRight=4;overflow=hidden;rotatable=0;points=[[0,0.5],[1,0.5]];portConstraint=eastwest;fontSize=12;" parent="21" vertex="1">
                    <mxGeometry y="306" width="280" height="30" as="geometry"/>
                </mxCell>
                <mxCell id="42" value="setHieght(height: float): void" style="text;strokeColor=none;fillColor=none;spacingLeft=4;spacingRight=4;overflow=hidden;rotatable=0;points=[[0,0.5],[1,0.5]];portConstraint=eastwest;fontSize=12;" parent="21" vertex="1">
                    <mxGeometry y="336" width="280" height="30" as="geometry"/>
                </mxCell>
                <mxCell id="30" value="getVolume(): float" style="text;strokeColor=none;fillColor=none;spacingLeft=4;spacingRight=4;overflow=hidden;rotatable=0;points=[[0,0.5],[1,0.5]];portConstraint=eastwest;fontSize=12;" parent="21" vertex="1">
                    <mxGeometry y="366" width="280" height="30" as="geometry"/>
                </mxCell>
                <mxCell id="31" value="getSurfaceArea(): float" style="text;strokeColor=none;fillColor=none;spacingLeft=4;spacingRight=4;overflow=hidden;rotatable=0;points=[[0,0.5],[1,0.5]];portConstraint=eastwest;fontSize=12;" parent="21" vertex="1">
                    <mxGeometry y="396" width="280" height="30" as="geometry"/>
                </mxCell>
                <mxCell id="32" value="toString(): String" style="text;strokeColor=none;fillColor=none;spacingLeft=4;spacingRight=4;overflow=hidden;rotatable=0;points=[[0,0.5],[1,0.5]];portConstraint=eastwest;fontSize=12;" parent="21" vertex="1">
                    <mxGeometry y="426" width="280" height="30" as="geometry"/>
                </mxCell>
                <mxCell id="43" value="Cone" style="swimlane;fontStyle=0;childLayout=stackLayout;horizontal=1;startSize=26;horizontalStack=0;resizeParent=1;resizeParentMax=0;resizeLast=0;collapsible=1;marginBottom=0;align=center;fontSize=14;" parent="1" vertex="1">
                    <mxGeometry x="-680" y="40" width="280" height="366" as="geometry"/>
                </mxCell>
                <mxCell id="45" value="radius: float" style="text;strokeColor=none;fillColor=none;spacingLeft=4;spacingRight=4;overflow=hidden;rotatable=0;points=[[0,0.5],[1,0.5]];portConstraint=eastwest;fontSize=12;" parent="43" vertex="1">
                    <mxGeometry y="26" width="280" height="30" as="geometry"/>
                </mxCell>
                <mxCell id="47" value="height: float" style="text;strokeColor=none;fillColor=none;spacingLeft=4;spacingRight=4;overflow=hidden;rotatable=0;points=[[0,0.5],[1,0.5]];portConstraint=eastwest;fontSize=12;" parent="43" vertex="1">
                    <mxGeometry y="56" width="280" height="30" as="geometry"/>
                </mxCell>
                <mxCell id="48" value="history: ArrayList&lt;Cone&gt;" style="text;strokeColor=none;fillColor=none;spacingLeft=4;spacingRight=4;overflow=hidden;rotatable=0;points=[[0,0.5],[1,0.5]];portConstraint=eastwest;fontSize=12;" parent="43" vertex="1">
                    <mxGeometry y="86" width="280" height="30" as="geometry"/>
                </mxCell>
                <mxCell id="49" value="" style="line;strokeWidth=1;rotatable=0;dashed=0;labelPosition=right;align=left;verticalAlign=middle;spacingTop=0;spacingLeft=6;points=[];portConstraint=eastwest;" parent="43" vertex="1">
                    <mxGeometry y="116" width="280" height="10" as="geometry"/>
                </mxCell>
                <mxCell id="50" value="Cone(radius: float,height: float)" style="text;strokeColor=none;fillColor=none;spacingLeft=4;spacingRight=4;overflow=hidden;rotatable=0;points=[[0,0.5],[1,0.5]];portConstraint=eastwest;fontSize=12;" parent="43" vertex="1">
                    <mxGeometry y="126" width="280" height="30" as="geometry"/>
                </mxCell>
                <mxCell id="52" value="getRadius(): float" style="text;strokeColor=none;fillColor=none;spacingLeft=4;spacingRight=4;overflow=hidden;rotatable=0;points=[[0,0.5],[1,0.5]];portConstraint=eastwest;fontSize=12;" parent="43" vertex="1">
                    <mxGeometry y="156" width="280" height="30" as="geometry"/>
                </mxCell>
                <mxCell id="53" value="setRadius(radius: float): void" style="text;strokeColor=none;fillColor=none;spacingLeft=4;spacingRight=4;overflow=hidden;rotatable=0;points=[[0,0.5],[1,0.5]];portConstraint=eastwest;fontSize=12;" parent="43" vertex="1">
                    <mxGeometry y="186" width="280" height="30" as="geometry"/>
                </mxCell>
                <mxCell id="54" value="getHeight(): float" style="text;strokeColor=none;fillColor=none;spacingLeft=4;spacingRight=4;overflow=hidden;rotatable=0;points=[[0,0.5],[1,0.5]];portConstraint=eastwest;fontSize=12;" parent="43" vertex="1">
                    <mxGeometry y="216" width="280" height="30" as="geometry"/>
                </mxCell>
                <mxCell id="55" value="setHeight(height: float): void" style="text;strokeColor=none;fillColor=none;spacingLeft=4;spacingRight=4;overflow=hidden;rotatable=0;points=[[0,0.5],[1,0.5]];portConstraint=eastwest;fontSize=12;" parent="43" vertex="1">
                    <mxGeometry y="246" width="280" height="30" as="geometry"/>
                </mxCell>
                <mxCell id="58" value="getVolume(): float" style="text;strokeColor=none;fillColor=none;spacingLeft=4;spacingRight=4;overflow=hidden;rotatable=0;points=[[0,0.5],[1,0.5]];portConstraint=eastwest;fontSize=12;" parent="43" vertex="1">
                    <mxGeometry y="276" width="280" height="30" as="geometry"/>
                </mxCell>
                <mxCell id="59" value="getSurfaceArea(): float" style="text;strokeColor=none;fillColor=none;spacingLeft=4;spacingRight=4;overflow=hidden;rotatable=0;points=[[0,0.5],[1,0.5]];portConstraint=eastwest;fontSize=12;" parent="43" vertex="1">
                    <mxGeometry y="306" width="280" height="30" as="geometry"/>
                </mxCell>
                <mxCell id="60" value="toString(): String" style="text;strokeColor=none;fillColor=none;spacingLeft=4;spacingRight=4;overflow=hidden;rotatable=0;points=[[0,0.5],[1,0.5]];portConstraint=eastwest;fontSize=12;" parent="43" vertex="1">
                    <mxGeometry y="336" width="280" height="30" as="geometry"/>
                </mxCell>
                <mxCell id="61" value="Cylinder" style="swimlane;fontStyle=0;childLayout=stackLayout;horizontal=1;startSize=26;horizontalStack=0;resizeParent=1;resizeParentMax=0;resizeLast=0;collapsible=1;marginBottom=0;align=center;fontSize=14;" parent="1" vertex="1">
                    <mxGeometry x="-680" y="450" width="280" height="366" as="geometry"/>
                </mxCell>
                <mxCell id="63" value="radius: float" style="text;strokeColor=none;fillColor=none;spacingLeft=4;spacingRight=4;overflow=hidden;rotatable=0;points=[[0,0.5],[1,0.5]];portConstraint=eastwest;fontSize=12;" parent="61" vertex="1">
                    <mxGeometry y="26" width="280" height="30" as="geometry"/>
                </mxCell>
                <mxCell id="64" value="height: float" style="text;strokeColor=none;fillColor=none;spacingLeft=4;spacingRight=4;overflow=hidden;rotatable=0;points=[[0,0.5],[1,0.5]];portConstraint=eastwest;fontSize=12;" parent="61" vertex="1">
                    <mxGeometry y="56" width="280" height="30" as="geometry"/>
                </mxCell>
                <mxCell id="65" value="history: ArrayList&lt;Cylinder&gt;" style="text;strokeColor=none;fillColor=none;spacingLeft=4;spacingRight=4;overflow=hidden;rotatable=0;points=[[0,0.5],[1,0.5]];portConstraint=eastwest;fontSize=12;" parent="61" vertex="1">
                    <mxGeometry y="86" width="280" height="30" as="geometry"/>
                </mxCell>
                <mxCell id="66" value="" style="line;strokeWidth=1;rotatable=0;dashed=0;labelPosition=right;align=left;verticalAlign=middle;spacingTop=0;spacingLeft=6;points=[];portConstraint=eastwest;" parent="61" vertex="1">
                    <mxGeometry y="116" width="280" height="10" as="geometry"/>
                </mxCell>
                <mxCell id="67" value="Cylinder(radius: float,height: float)" style="text;strokeColor=none;fillColor=none;spacingLeft=4;spacingRight=4;overflow=hidden;rotatable=0;points=[[0,0.5],[1,0.5]];portConstraint=eastwest;fontSize=12;" parent="61" vertex="1">
                    <mxGeometry y="126" width="280" height="30" as="geometry"/>
                </mxCell>
                <mxCell id="69" value="getRadius(): float" style="text;strokeColor=none;fillColor=none;spacingLeft=4;spacingRight=4;overflow=hidden;rotatable=0;points=[[0,0.5],[1,0.5]];portConstraint=eastwest;fontSize=12;" parent="61" vertex="1">
                    <mxGeometry y="156" width="280" height="30" as="geometry"/>
                </mxCell>
                <mxCell id="70" value="setRadius(radius: float): void" style="text;strokeColor=none;fillColor=none;spacingLeft=4;spacingRight=4;overflow=hidden;rotatable=0;points=[[0,0.5],[1,0.5]];portConstraint=eastwest;fontSize=12;" parent="61" vertex="1">
                    <mxGeometry y="186" width="280" height="30" as="geometry"/>
                </mxCell>
                <mxCell id="71" value="getHeight(): float" style="text;strokeColor=none;fillColor=none;spacingLeft=4;spacingRight=4;overflow=hidden;rotatable=0;points=[[0,0.5],[1,0.5]];portConstraint=eastwest;fontSize=12;" parent="61" vertex="1">
                    <mxGeometry y="216" width="280" height="30" as="geometry"/>
                </mxCell>
                <mxCell id="72" value="setHeight(height: float): void" style="text;strokeColor=none;fillColor=none;spacingLeft=4;spacingRight=4;overflow=hidden;rotatable=0;points=[[0,0.5],[1,0.5]];portConstraint=eastwest;fontSize=12;" parent="61" vertex="1">
                    <mxGeometry y="246" width="280" height="30" as="geometry"/>
                </mxCell>
                <mxCell id="73" value="getVolume(): float" style="text;strokeColor=none;fillColor=none;spacingLeft=4;spacingRight=4;overflow=hidden;rotatable=0;points=[[0,0.5],[1,0.5]];portConstraint=eastwest;fontSize=12;" parent="61" vertex="1">
                    <mxGeometry y="276" width="280" height="30" as="geometry"/>
                </mxCell>
                <mxCell id="74" value="getSurfaceArea(): float" style="text;strokeColor=none;fillColor=none;spacingLeft=4;spacingRight=4;overflow=hidden;rotatable=0;points=[[0,0.5],[1,0.5]];portConstraint=eastwest;fontSize=12;" parent="61" vertex="1">
                    <mxGeometry y="306" width="280" height="30" as="geometry"/>
                </mxCell>
                <mxCell id="75" value="toString(): String" style="text;strokeColor=none;fillColor=none;spacingLeft=4;spacingRight=4;overflow=hidden;rotatable=0;points=[[0,0.5],[1,0.5]];portConstraint=eastwest;fontSize=12;" parent="61" vertex="1">
                    <mxGeometry y="336" width="280" height="30" as="geometry"/>
                </mxCell>
                <mxCell id="76" value="Sphere" style="swimlane;fontStyle=0;childLayout=stackLayout;horizontal=1;startSize=26;horizontalStack=0;resizeParent=1;resizeParentMax=0;resizeLast=0;collapsible=1;marginBottom=0;align=center;fontSize=14;" parent="1" vertex="1">
                    <mxGeometry x="-290" y="510" width="280" height="276" as="geometry"/>
                </mxCell>
                <mxCell id="78" value="radius: float" style="text;strokeColor=none;fillColor=none;spacingLeft=4;spacingRight=4;overflow=hidden;rotatable=0;points=[[0,0.5],[1,0.5]];portConstraint=eastwest;fontSize=12;" parent="76" vertex="1">
                    <mxGeometry y="26" width="280" height="30" as="geometry"/>
                </mxCell>
                <mxCell id="80" value="history: ArrayList&lt;Sphere&gt;" style="text;strokeColor=none;fillColor=none;spacingLeft=4;spacingRight=4;overflow=hidden;rotatable=0;points=[[0,0.5],[1,0.5]];portConstraint=eastwest;fontSize=12;" parent="76" vertex="1">
                    <mxGeometry y="56" width="280" height="30" as="geometry"/>
                </mxCell>
                <mxCell id="81" value="" style="line;strokeWidth=1;rotatable=0;dashed=0;labelPosition=right;align=left;verticalAlign=middle;spacingTop=0;spacingLeft=6;points=[];portConstraint=eastwest;" parent="76" vertex="1">
                    <mxGeometry y="86" width="280" height="10" as="geometry"/>
                </mxCell>
                <mxCell id="82" value="Sphere(radius: float)" style="text;strokeColor=none;fillColor=none;spacingLeft=4;spacingRight=4;overflow=hidden;rotatable=0;points=[[0,0.5],[1,0.5]];portConstraint=eastwest;fontSize=12;" parent="76" vertex="1">
                    <mxGeometry y="96" width="280" height="30" as="geometry"/>
                </mxCell>
                <mxCell id="84" value="getRadius(): float" style="text;strokeColor=none;fillColor=none;spacingLeft=4;spacingRight=4;overflow=hidden;rotatable=0;points=[[0,0.5],[1,0.5]];portConstraint=eastwest;fontSize=12;" parent="76" vertex="1">
                    <mxGeometry y="126" width="280" height="30" as="geometry"/>
                </mxCell>
                <mxCell id="85" value="setRadius(radius: float): void" style="text;strokeColor=none;fillColor=none;spacingLeft=4;spacingRight=4;overflow=hidden;rotatable=0;points=[[0,0.5],[1,0.5]];portConstraint=eastwest;fontSize=12;" parent="76" vertex="1">
                    <mxGeometry y="156" width="280" height="30" as="geometry"/>
                </mxCell>
                <mxCell id="88" value="getVolume(): float" style="text;strokeColor=none;fillColor=none;spacingLeft=4;spacingRight=4;overflow=hidden;rotatable=0;points=[[0,0.5],[1,0.5]];portConstraint=eastwest;fontSize=12;" parent="76" vertex="1">
                    <mxGeometry y="186" width="280" height="30" as="geometry"/>
                </mxCell>
                <mxCell id="89" value="getSurfaceArea(): float" style="text;strokeColor=none;fillColor=none;spacingLeft=4;spacingRight=4;overflow=hidden;rotatable=0;points=[[0,0.5],[1,0.5]];portConstraint=eastwest;fontSize=12;" parent="76" vertex="1">
                    <mxGeometry y="216" width="280" height="30" as="geometry"/>
                </mxCell>
                <mxCell id="90" value="toString(): String" style="text;strokeColor=none;fillColor=none;spacingLeft=4;spacingRight=4;overflow=hidden;rotatable=0;points=[[0,0.5],[1,0.5]];portConstraint=eastwest;fontSize=12;" parent="76" vertex="1">
                    <mxGeometry y="246" width="280" height="30" as="geometry"/>
                </mxCell>
                <mxCell id="91" value="App" style="swimlane;fontStyle=0;childLayout=stackLayout;horizontal=1;startSize=26;horizontalStack=0;resizeParent=1;resizeParentMax=0;resizeLast=0;collapsible=1;marginBottom=0;align=center;fontSize=14;" parent="1" vertex="1">
                    <mxGeometry x="-290" y="40" width="280" height="426" as="geometry"/>
                </mxCell>
                <mxCell id="92" value="scanner: Scanner" style="text;strokeColor=none;fillColor=none;spacingLeft=4;spacingRight=4;overflow=hidden;rotatable=0;points=[[0,0.5],[1,0.5]];portConstraint=eastwest;fontSize=12;" parent="91" vertex="1">
                    <mxGeometry y="26" width="280" height="30" as="geometry"/>
                </mxCell>
                <mxCell id="93" value="length: int" style="text;strokeColor=none;fillColor=none;spacingLeft=4;spacingRight=4;overflow=hidden;rotatable=0;points=[[0,0.5],[1,0.5]];portConstraint=eastwest;fontSize=12;" parent="91" vertex="1">
                    <mxGeometry y="56" width="280" height="30" as="geometry"/>
                </mxCell>
                <mxCell id="94" value="menuOption: int" style="text;strokeColor=none;fillColor=none;spacingLeft=4;spacingRight=4;overflow=hidden;rotatable=0;points=[[0,0.5],[1,0.5]];portConstraint=eastwest;fontSize=12;" parent="91" vertex="1">
                    <mxGeometry y="86" width="280" height="30" as="geometry"/>
                </mxCell>
                <mxCell id="95" value="" style="line;strokeWidth=1;rotatable=0;dashed=0;labelPosition=right;align=left;verticalAlign=middle;spacingTop=0;spacingLeft=6;points=[];portConstraint=eastwest;" parent="91" vertex="1">
                    <mxGeometry y="116" width="280" height="10" as="geometry"/>
                </mxCell>
                <mxCell id="96" value="main(args: String[]): void" style="text;strokeColor=none;fillColor=none;spacingLeft=4;spacingRight=4;overflow=hidden;rotatable=0;points=[[0,0.5],[1,0.5]];portConstraint=eastwest;fontSize=12;" parent="91" vertex="1">
                    <mxGeometry y="126" width="280" height="30" as="geometry"/>
                </mxCell>
                <mxCell id="97" value="printBorder(): void" style="text;strokeColor=none;fillColor=none;spacingLeft=4;spacingRight=4;overflow=hidden;rotatable=0;points=[[0,0.5],[1,0.5]];portConstraint=eastwest;fontSize=12;" parent="91" vertex="1">
                    <mxGeometry y="156" width="280" height="30" as="geometry"/>
                </mxCell>
                <mxCell id="98" value="printTitle(title: String): void" style="text;strokeColor=none;fillColor=none;spacingLeft=4;spacingRight=4;overflow=hidden;rotatable=0;points=[[0,0.5],[1,0.5]];portConstraint=eastwest;fontSize=12;" parent="91" vertex="1">
                    <mxGeometry y="186" width="280" height="30" as="geometry"/>
                </mxCell>
                <mxCell id="99" value="getMenuOption(): void" style="text;strokeColor=none;fillColor=none;spacingLeft=4;spacingRight=4;overflow=hidden;rotatable=0;points=[[0,0.5],[1,0.5]];portConstraint=eastwest;fontSize=12;" parent="91" vertex="1">
                    <mxGeometry y="216" width="280" height="30" as="geometry"/>
                </mxCell>
                <mxCell id="100" value="menuCube(): void" style="text;strokeColor=none;fillColor=none;spacingLeft=4;spacingRight=4;overflow=hidden;rotatable=0;points=[[0,0.5],[1,0.5]];portConstraint=eastwest;fontSize=12;" parent="91" vertex="1">
                    <mxGeometry y="246" width="280" height="30" as="geometry"/>
                </mxCell>
                <mxCell id="119" value="menuCuboid(): void" style="text;strokeColor=none;fillColor=none;spacingLeft=4;spacingRight=4;overflow=hidden;rotatable=0;points=[[0,0.5],[1,0.5]];portConstraint=eastwest;fontSize=12;" parent="91" vertex="1">
                    <mxGeometry y="276" width="280" height="30" as="geometry"/>
                </mxCell>
                <mxCell id="101" value="menuCone(): void" style="text;strokeColor=none;fillColor=none;spacingLeft=4;spacingRight=4;overflow=hidden;rotatable=0;points=[[0,0.5],[1,0.5]];portConstraint=eastwest;fontSize=12;" parent="91" vertex="1">
                    <mxGeometry y="306" width="280" height="30" as="geometry"/>
                </mxCell>
                <mxCell id="103" value="menuCylinder(): void" style="text;strokeColor=none;fillColor=none;spacingLeft=4;spacingRight=4;overflow=hidden;rotatable=0;points=[[0,0.5],[1,0.5]];portConstraint=eastwest;fontSize=12;" parent="91" vertex="1">
                    <mxGeometry y="336" width="280" height="30" as="geometry"/>
                </mxCell>
                <mxCell id="104" value="menuSphere(): void" style="text;strokeColor=none;fillColor=none;spacingLeft=4;spacingRight=4;overflow=hidden;rotatable=0;points=[[0,0.5],[1,0.5]];portConstraint=eastwest;fontSize=12;" parent="91" vertex="1">
                    <mxGeometry y="366" width="280" height="30" as="geometry"/>
                </mxCell>
                <mxCell id="102" value="menuHistroy(): void" style="text;strokeColor=none;fillColor=none;spacingLeft=4;spacingRight=4;overflow=hidden;rotatable=0;points=[[0,0.5],[1,0.5]];portConstraint=eastwest;fontSize=12;" parent="91" vertex="1">
                    <mxGeometry y="396" width="280" height="30" as="geometry"/>
                </mxCell>
                <mxCell id="122" value="" style="endArrow=diamondThin;endFill=1;endSize=24;html=1;exitX=0;exitY=0.5;exitDx=0;exitDy=0;entryX=1;entryY=0.5;entryDx=0;entryDy=0;edgeStyle=orthogonalEdgeStyle;" parent="1" source="5" target="100" edge="1">
                    <mxGeometry width="160" relative="1" as="geometry">
                        <mxPoint x="360" y="730" as="sourcePoint"/>
                        <mxPoint x="510" y="710" as="targetPoint"/>
                    </mxGeometry>
                </mxCell>
                <mxCell id="125" value="" style="endArrow=diamondThin;endFill=1;endSize=24;html=1;exitX=0;exitY=0.5;exitDx=0;exitDy=0;entryX=1;entryY=0.5;entryDx=0;entryDy=0;edgeStyle=orthogonalEdgeStyle;" parent="1" source="26" target="119" edge="1">
                    <mxGeometry width="160" relative="1" as="geometry">
                        <mxPoint x="460" y="270" as="sourcePoint"/>
                        <mxPoint x="410" y="390" as="targetPoint"/>
                    </mxGeometry>
                </mxCell>
                <mxCell id="126" value="" style="endArrow=diamondThin;endFill=1;endSize=24;html=1;exitX=1;exitY=0.5;exitDx=0;exitDy=0;entryX=0;entryY=0.5;entryDx=0;entryDy=0;edgeStyle=orthogonalEdgeStyle;" parent="1" source="50" target="101" edge="1">
                    <mxGeometry width="160" relative="1" as="geometry">
                        <mxPoint x="-250" y="520" as="sourcePoint"/>
                        <mxPoint x="-300" y="640" as="targetPoint"/>
                    </mxGeometry>
                </mxCell>
                <mxCell id="128" value="" style="endArrow=diamondThin;endFill=1;endSize=24;html=1;exitX=1;exitY=0.5;exitDx=0;exitDy=0;entryX=0;entryY=0.5;entryDx=0;entryDy=0;edgeStyle=orthogonalEdgeStyle;" parent="1" source="67" target="103" edge="1">
                    <mxGeometry width="160" relative="1" as="geometry">
                        <mxPoint x="-220" y="500" as="sourcePoint"/>
                        <mxPoint x="-180" y="650" as="targetPoint"/>
                    </mxGeometry>
                </mxCell>
                <mxCell id="133" value="" style="endArrow=diamondThin;endFill=1;endSize=24;html=1;exitX=0;exitY=0.5;exitDx=0;exitDy=0;entryX=0;entryY=0.5;entryDx=0;entryDy=0;edgeStyle=orthogonalEdgeStyle;" parent="1" source="82" target="104" edge="1">
                    <mxGeometry width="160" relative="1" as="geometry">
                        <mxPoint x="-390" y="691" as="sourcePoint"/>
                        <mxPoint x="-280" y="401" as="targetPoint"/>
                        <Array as="points">
                            <mxPoint x="-330" y="651"/>
                            <mxPoint x="-330" y="421"/>
                        </Array>
                    </mxGeometry>
                </mxCell>
                <mxCell id="134" value="GeometricShape" style="swimlane;fontStyle=0;childLayout=stackLayout;horizontal=1;startSize=26;horizontalStack=0;resizeParent=1;resizeParentMax=0;resizeLast=0;collapsible=1;marginBottom=0;align=center;fontSize=14;" vertex="1" parent="1">
                    <mxGeometry x="-290" y="830" width="280" height="246" as="geometry"/>
                </mxCell>
                <mxCell id="135" value="id: int" style="text;strokeColor=none;fillColor=none;spacingLeft=4;spacingRight=4;overflow=hidden;rotatable=0;points=[[0,0.5],[1,0.5]];portConstraint=eastwest;fontSize=12;" vertex="1" parent="134">
                    <mxGeometry y="26" width="280" height="30" as="geometry"/>
                </mxCell>
                <mxCell id="136" value="color: String" style="text;strokeColor=none;fillColor=none;spacingLeft=4;spacingRight=4;overflow=hidden;rotatable=0;points=[[0,0.5],[1,0.5]];portConstraint=eastwest;fontSize=12;" vertex="1" parent="134">
                    <mxGeometry y="56" width="280" height="30" as="geometry"/>
                </mxCell>
                <mxCell id="138" value="" style="line;strokeWidth=1;rotatable=0;dashed=0;labelPosition=right;align=left;verticalAlign=middle;spacingTop=0;spacingLeft=6;points=[];portConstraint=eastwest;" vertex="1" parent="134">
                    <mxGeometry y="86" width="280" height="10" as="geometry"/>
                </mxCell>
                <mxCell id="139" value="GeometricShape(id: int, color: String)" style="text;strokeColor=none;fillColor=none;spacingLeft=4;spacingRight=4;overflow=hidden;rotatable=0;points=[[0,0.5],[1,0.5]];portConstraint=eastwest;fontSize=12;" vertex="1" parent="134">
                    <mxGeometry y="96" width="280" height="30" as="geometry"/>
                </mxCell>
                <mxCell id="140" value="getId(): int" style="text;strokeColor=none;fillColor=none;spacingLeft=4;spacingRight=4;overflow=hidden;rotatable=0;points=[[0,0.5],[1,0.5]];portConstraint=eastwest;fontSize=12;" vertex="1" parent="134">
                    <mxGeometry y="126" width="280" height="30" as="geometry"/>
                </mxCell>
                <mxCell id="141" value="getColor: String" style="text;strokeColor=none;fillColor=none;spacingLeft=4;spacingRight=4;overflow=hidden;rotatable=0;points=[[0,0.5],[1,0.5]];portConstraint=eastwest;fontSize=12;" vertex="1" parent="134">
                    <mxGeometry y="156" width="280" height="30" as="geometry"/>
                </mxCell>
                <mxCell id="142" value="setColor(color: String): void" style="text;strokeColor=none;fillColor=none;spacingLeft=4;spacingRight=4;overflow=hidden;rotatable=0;points=[[0,0.5],[1,0.5]];portConstraint=eastwest;fontSize=12;" vertex="1" parent="134">
                    <mxGeometry y="186" width="280" height="30" as="geometry"/>
                </mxCell>
                <mxCell id="145" value="toString(): String" style="text;strokeColor=none;fillColor=none;spacingLeft=4;spacingRight=4;overflow=hidden;rotatable=0;points=[[0,0.5],[1,0.5]];portConstraint=eastwest;fontSize=12;" vertex="1" parent="134">
                    <mxGeometry y="216" width="280" height="30" as="geometry"/>
                </mxCell>
                <mxCell id="148" value="Extends" style="endArrow=block;endSize=16;endFill=0;html=1;exitX=0.5;exitY=0;exitDx=0;exitDy=0;edgeStyle=orthogonalEdgeStyle;" edge="1" parent="1" source="134" target="76">
                    <mxGeometry x="-0.5455" width="160" relative="1" as="geometry">
                        <mxPoint x="-490" y="960" as="sourcePoint"/>
                        <mxPoint x="-330" y="960" as="targetPoint"/>
                        <mxPoint as="offset"/>
                    </mxGeometry>
                </mxCell>
                <mxCell id="151" value="" style="endArrow=block;endSize=16;endFill=0;html=1;edgeStyle=orthogonalEdgeStyle;" edge="1" parent="1" source="134" target="21">
                    <mxGeometry x="-0.5455" width="160" relative="1" as="geometry">
                        <mxPoint x="60" y="754" as="sourcePoint"/>
                        <mxPoint x="60" y="710" as="targetPoint"/>
                        <mxPoint as="offset"/>
                        <Array as="points">
                            <mxPoint x="440" y="953"/>
                            <mxPoint x="440" y="588"/>
                        </Array>
                    </mxGeometry>
                </mxCell>
                <mxCell id="152" value="Extends" style="endArrow=block;endSize=16;endFill=0;html=1;edgeStyle=orthogonalEdgeStyle;" edge="1" parent="1" source="134" target="2">
                    <mxGeometry x="-0.5731" width="160" relative="1" as="geometry">
                        <mxPoint y="963.0588235294117" as="sourcePoint"/>
                        <mxPoint x="270" y="826" as="targetPoint"/>
                        <mxPoint as="offset"/>
                        <Array as="points">
                            <mxPoint x="440" y="953"/>
                            <mxPoint x="440" y="178"/>
                        </Array>
                    </mxGeometry>
                </mxCell>
                <mxCell id="153" value="" style="endArrow=block;endSize=16;endFill=0;html=1;edgeStyle=orthogonalEdgeStyle;" edge="1" parent="1" source="134" target="61">
                    <mxGeometry x="-0.5455" width="160" relative="1" as="geometry">
                        <mxPoint x="-420" y="980" as="sourcePoint"/>
                        <mxPoint x="-790" y="730" as="targetPoint"/>
                        <mxPoint as="offset"/>
                        <Array as="points">
                            <mxPoint x="-720" y="960"/>
                            <mxPoint x="-720" y="633"/>
                        </Array>
                    </mxGeometry>
                </mxCell>
                <mxCell id="154" value="Extends" style="endArrow=block;endSize=16;endFill=0;html=1;edgeStyle=orthogonalEdgeStyle;" edge="1" parent="1" source="134" target="43">
                    <mxGeometry x="-0.5857" width="160" relative="1" as="geometry">
                        <mxPoint x="-280" y="963.0909090909088" as="sourcePoint"/>
                        <mxPoint x="-670" y="643.090909090909" as="targetPoint"/>
                        <mxPoint as="offset"/>
                        <Array as="points">
                            <mxPoint x="-720" y="960"/>
                            <mxPoint x="-720" y="223"/>
                        </Array>
                    </mxGeometry>
                </mxCell>
            </root>
        </mxGraphModel>
    </diagram>
</mxfile>